<svg version="1.2" xmlns="http://www.w3.org/2000/svg" viewBox="0 0 1026 1026" width="1026" height="1026">
	<style>
		.s0 { fill: #c5a059 } 
	</style>
	<g id="Layer 1">
		<path id="Path 0" fill-rule="evenodd" class="s0" d="m480 0.59c-1.92 0.21-9.13 0.88-16 1.5-6.88 0.61-19.92 2.19-29 3.52-9.08 1.33-23.47 3.98-32 5.88-8.53 1.91-22.25 5.32-30.5 7.58-8.25 2.26-21.08 6.29-28.5 8.96-7.42 2.66-20.7 7.83-29.5 11.5-8.8 3.66-23.88 10.64-33.5 15.51-9.63 4.86-24.7 13.17-33.5 18.47-8.8 5.29-22.53 14.3-30.5 20.01-7.97 5.72-19.44 14.35-25.47 19.19-6.04 4.83-17.74 14.92-26 22.4-8.27 7.49-20.96 20.09-28.21 28-7.24 7.92-16.92 18.95-21.5 24.53-4.57 5.57-12.85 16.37-18.4 24-5.54 7.62-13.22 18.81-17.06 24.86-3.84 6.05-10.07 16.4-13.86 23-3.78 6.6-11.01 20.55-16.08 31-5.06 10.45-11.69 25.3-14.73 33-3.04 7.7-7.37 19.51-9.61 26.25-2.24 6.74-5.83 18.44-7.97 26-2.13 7.56-5.05 19.15-6.48 25.75-1.43 6.6-3.69 18.3-5.03 26-1.34 7.7-3.26 20.52-4.27 28.5-1.52 12.04-1.83 21.63-1.81 56.5 0.01 33.74 0.36 45.05 1.79 57.5 0.98 8.52 3.11 23.38 4.74 33 1.62 9.62 5.24 26.73 8.04 38 2.79 11.27 7.47 27.7 10.38 36.5 2.92 8.8 8.1 22.98 11.52 31.5 3.42 8.52 10.19 23.6 15.04 33.5 4.85 9.9 12.05 23.63 15.99 30.5 3.94 6.87 12.27 20.15 18.51 29.5 6.24 9.35 15.21 21.95 19.92 28 4.72 6.05 13.41 16.62 19.31 23.5 5.91 6.87 16.82 18.53 24.24 25.9 7.42 7.37 18.45 17.76 24.5 23.09 6.05 5.33 15.95 13.62 22 18.42 6.05 4.8 20 14.74 31 22.09 11 7.35 25.62 16.56 32.5 20.47 6.87 3.91 18.8 10.21 26.5 13.99 7.7 3.78 20.97 9.77 29.5 13.31 8.53 3.55 25.17 9.63 37 13.52 11.83 3.89 28.03 8.66 36 10.59 7.97 1.94 22.15 5 31.5 6.8l17 3.27 143 0.61c24.03-4.02 37.3-6.55 45-8.22 7.7-1.67 20.86-5.01 29.25-7.44 8.39-2.42 21.66-6.7 29.5-9.51 7.84-2.81 19.65-7.34 26.25-10.08 6.6-2.73 19.2-8.5 28-12.82 8.8-4.32 21.62-11.08 28.5-15.04 6.87-3.95 19.03-11.46 27-16.68 7.97-5.23 20.35-13.9 27.5-19.27 7.15-5.37 17.95-14.01 24-19.19 6.05-5.19 17.47-15.71 25.38-23.37 7.9-7.67 19.7-20.02 26.21-27.44 6.51-7.42 15.69-18.45 20.41-24.5 4.71-6.05 12.77-17.08 17.91-24.5 5.14-7.42 13.27-20.02 18.06-28 4.8-7.98 13.6-24.4 19.56-36.5 5.97-12.1 13.76-29.42 17.32-38.5 3.55-9.08 8.48-22.8 10.95-30.5 2.47-7.7 6.1-20.08 8.07-27.5 1.96-7.42 5.15-21.37 7.08-31 1.93-9.62 4.39-24.48 5.47-33 1.08-8.52 2.44-21.58 3.02-29 0.59-7.42 1.06-22.05 1.07-32.5 0-10.45-0.48-27.1-1.06-37-0.58-9.9-1.93-24.98-3-33.5-1.08-8.52-3.13-22.02-4.57-30-1.43-7.98-4.55-22.37-6.93-32-2.37-9.62-6.65-24.7-9.51-33.5-2.85-8.8-7.55-22.07-10.45-29.5-2.89-7.43-8.57-20.7-12.61-29.5-4.05-8.8-11-22.52-15.43-30.5-4.44-7.98-11.16-19.45-14.93-25.5-3.78-6.05-10.99-16.85-16.04-24-5.05-7.15-12.85-17.61-17.33-23.25-4.48-5.64-12.82-15.54-18.52-22-5.7-6.46-16.61-17.83-24.25-25.26-7.63-7.43-19.05-17.95-25.38-23.37-6.33-5.43-18.25-14.93-26.5-21.11-8.25-6.19-20.17-14.61-26.5-18.72-6.33-4.11-17.35-10.86-24.5-15.01-7.15-4.15-18.4-10.24-25-13.53-6.6-3.3-17.63-8.48-24.5-11.51-6.88-3.04-20.49-8.5-30.25-12.13-9.76-3.64-23.94-8.36-31.5-10.5-7.56-2.13-20.72-5.5-29.25-7.47-8.53-1.98-21.13-4.53-28-5.68-6.88-1.15-19.92-2.99-29-4.1-12.94-1.57-24.16-2.08-52-2.34-19.53-0.17-37.08-0.15-39 0.07zm-27.5 192.04c1.65-0.26 8.17-0.29 14.5-0.07 6.33 0.22 13.97 1.08 17 1.91 3.03 0.83 7.75 2.61 10.5 3.95 2.75 1.34 7.21 4.39 9.9 6.76 2.7 2.38 6.58 6.79 8.62 9.82 2.04 3.03 5.07 8.2 6.73 11.5 1.66 3.3 4.44 10.05 6.18 15 1.73 4.95 4 13.27 5.04 18.5 1.04 5.23 3.26 20.52 4.93 34 1.68 13.48 3.73 27.65 4.56 31.5 0.82 3.85 2.3 7.8 3.27 8.78 0.97 0.98 2.56 1.77 3.52 1.75 0.96-0.02 2.68-1.27 3.81-2.78 1.14-1.51 3.13-6.35 4.44-10.75 1.3-4.4 4.47-17.45 7.04-29 2.57-11.55 5.51-23.7 6.54-27 1.04-3.3 4.03-9.78 6.65-14.39 2.62-4.61 7.59-11.59 11.05-15.5 3.45-3.91 9.75-9.48 14-12.38 4.24-2.9 10.42-6.15 13.72-7.22 3.3-1.07 8.92-2.39 12.5-2.94 4.3-0.66 9.04-0.66 14-0.01 4.12 0.54 9.97 2.14 13 3.56 3.62 1.69 8.49 5.53 14.24 11.22 5.81 5.76 8.75 9.41 8.75 10.91 0.01 1.37-3.99 7.18-10.24 14.9-5.64 6.95-12.73 15.84-15.76 19.75-3.03 3.9-8.91 11.83-13.07 17.6-4.16 5.77-10.96 15.9-15.1 22.5-4.14 6.6-10.55 17.4-14.23 24-3.69 6.6-9.64 18.07-13.23 25.5-3.59 7.43-8.26 17.55-10.36 22.5-2.11 4.95-6.52 16.2-9.81 25-3.28 8.8-8.24 23.43-11.01 32.5-2.77 9.07-6.18 20.77-7.57 26-1.39 5.23-4.09 17.15-6 26.5-1.92 9.35-4.39 22.4-5.51 29-1.12 6.6-2.71 17.63-3.53 24.5-0.82 6.88-1.97 19.7-2.55 28.5-0.59 8.8-1.39 18.85-1.79 22.33-0.66 5.75-0.57 6.27 1.02 5.75 1.26-0.42 2.3-3.03 3.72-9.33 1.09-4.81 4.48-21.12 7.55-36.25 3.06-15.12 7.56-36.27 10-47 2.43-10.73 6.42-26.93 8.85-36 2.43-9.07 6.54-23.02 9.14-31 2.59-7.98 7.42-21.7 10.74-30.5 3.31-8.8 9.51-23.43 13.77-32.5 4.27-9.07 10.58-21.68 14.03-28 3.45-6.32 9.07-16.23 12.51-22 3.43-5.77 11.36-18.15 17.63-27.5 6.27-9.35 15.5-22.62 20.52-29.5 5.02-6.87 11.3-15.16 13.95-18.41 2.66-3.25 5.96-6.74 7.34-7.74 2.34-1.71 2.88-1.73 8.5-0.28 3.3 0.84 10.95 3.94 17 6.89 7.36 3.58 12.98 7.16 17 10.81 3.3 3 8.57 9.01 11.71 13.34 3.14 4.34 7.15 11.27 8.91 15.39 2.31 5.43 3.22 9.14 3.38 19.38l-10.1 7.06c-5.55 3.88-13.88 9.98-18.5 13.55-4.62 3.57-13.57 11.04-19.9 16.59-6.33 5.56-17.77 16.81-25.44 25.01-7.67 8.2-19.18 21.21-25.58 28.91-6.41 7.7-15.04 18.5-19.2 24-4.15 5.5-11.78 16.3-16.95 24-5.17 7.7-13.52 21.2-18.55 30-5.04 8.8-12.28 22.52-16.1 30.5-3.81 7.98-8.61 18.55-10.67 23.5-2.05 4.95-6.38 16.09-9.62 24.75-3.24 8.66-7.87 22.61-10.28 31-2.42 8.39-4.67 17.16-5 19.5-0.44 3.05-0.26 4.26 0.64 4.29 0.69 0.01 3.01-4.15 5.16-9.25 2.16-5.11 5.7-13.56 7.88-18.79 2.17-5.23 8.19-18.5 13.36-29.5 5.17-11 13.39-27.42 18.26-36.5 4.88-9.08 12.34-22.35 16.58-29.5 4.24-7.15 12.49-19.98 18.33-28.5 5.85-8.52 14.58-20.79 19.4-27.25 4.83-6.46 13.62-17.25 19.53-23.97 5.91-6.73 18.62-20.28 28.25-30.12 9.62-9.85 23.28-23.13 30.35-29.53 7.07-6.4 18.32-15.6 25-20.45 6.68-4.85 13.27-9.09 14.65-9.41 1.46-0.34 5.41 0.41 9.5 1.8 3.85 1.31 13.08 5.39 20.5 9.07 10.77 5.33 15.01 8.08 21 13.59 4.12 3.8 9.33 9.8 11.57 13.34 2.24 3.53 4.89 8.45 5.88 10.93 1.05 2.6 2.07 8.55 3.05 23.72l-2.5 0.71c-1.38 0.39-7.67 2.54-14 4.77-6.33 2.23-17.8 6.73-25.5 10.01-7.7 3.27-20.75 9.34-29 13.48-8.25 4.15-21.75 11.38-30 16.07-8.25 4.7-21.08 12.59-28.5 17.54-7.42 4.94-17.78 12.15-23 16.01-5.22 3.87-14.66 11.34-20.97 16.61-6.31 5.27-17.5 15.43-24.87 22.58-7.38 7.15-17.79 17.95-23.15 24-5.36 6.05-13.97 16.63-19.14 23.5-5.17 6.88-12.96 18.13-17.32 25-4.36 6.88-10.76 17.9-14.22 24.5-3.46 6.6-6.3 12.56-6.31 13.25-0.01 0.69 0.43 1.25 0.98 1.25 0.55 0 4.04-3.9 7.75-8.67 3.71-4.77 12.52-15.91 19.57-24.75 7.05-8.85 20.32-24.13 29.5-33.97 9.17-9.83 23.22-24.01 31.21-31.5 8-7.48 17.45-16.12 21-19.19 3.56-3.07 10.07-8.47 14.47-12 4.4-3.54 11.6-9.15 16-12.48 4.4-3.32 11.6-8.52 16-11.55 4.4-3.02 13.85-9.14 21-13.59 7.15-4.46 19.97-12 28.5-16.77 8.53-4.76 24.05-12.87 34.5-18.01 10.45-5.14 23.72-11.42 29.5-13.96 5.78-2.53 11.06-4.6 11.75-4.58 0.69 0.01 7.01 7.78 14.05 17.27 7.04 9.49 14.87 20.18 17.39 23.75 2.53 3.57 5.92 8.75 7.53 11.5 1.62 2.75 4.32 8.6 6 13 1.68 4.4 3.62 11.38 4.3 15.5 0.73 4.46 0.97 10.34 0.57 14.5-0.36 3.85-1.36 9.7-2.22 13-0.87 3.3-2.61 8.02-3.89 10.5-1.28 2.48-4.49 7.18-7.15 10.45-2.66 3.27-7.98 8.6-11.83 11.84-3.9 3.28-10.99 7.83-16 10.25-4.95 2.4-12.38 5.48-16.5 6.86-4.13 1.38-11.55 2.97-16.5 3.53-4.95 0.57-26.55 1.49-48 2.06-21.45 0.56-44.63 1.45-51.5 1.98-6.88 0.53-14.75 1.39-17.5 1.92-2.75 0.52-8.83 1.92-13.5 3.1-4.67 1.17-12.1 3.23-16.5 4.55-4.4 1.33-13.17 4.48-19.5 7.01-6.33 2.52-16.45 7.3-22.5 10.61-6.05 3.32-15.28 8.88-20.5 12.36-5.22 3.48-13.41 9.85-18.18 14.16-4.78 4.3-11.76 11.33-15.5 15.62-3.75 4.29-9.86 12.61-13.57 18.5-3.71 5.88-8.85 15.65-11.41 21.7-2.56 6.05-6.11 15.27-7.88 20.5-1.78 5.23-5.28 17.6-7.79 27.5-2.52 9.9-6.2 25.42-8.2 34.5-1.99 9.08-5.85 25.27-8.58 36-2.72 10.73-7.44 26.92-10.49 36-3.06 9.08-8.55 22.8-12.22 30.5-3.67 7.7-9.1 18.5-12.05 24-2.96 5.5-7.72 13.6-10.57 18-2.85 4.4-8.02 11.38-11.48 15.5-3.47 4.13-7.94 9.02-9.94 10.88-2 1.85-5.44 4.68-7.64 6.28-2.76 2-5.17 2.89-7.75 2.87-2.06-0.02-4.08-0.59-4.48-1.28-0.4-0.69-0.63-4.51-0.5-8.5 0.13-3.99 0.94-8.94 1.8-11 0.86-2.06 5.28-9.37 9.83-16.25 4.54-6.87 10.77-16.77 13.84-22 3.07-5.23 9.18-16.7 13.57-25.5 4.4-8.8 9.56-19.83 11.49-24.5 1.93-4.67 5.8-14.91 8.6-22.75 2.81-7.84 6.69-20.44 8.64-28 1.95-7.56 4.43-18.7 5.51-24.75 1.07-6.05 2.47-16.85 3.09-24 0.85-9.87 0.84-16.13-0.08-26-0.66-7.15-1.87-16.83-2.69-21.5-0.82-4.67-3.25-13.9-5.4-20.5-2.15-6.6-5.77-15.83-8.03-20.5-2.26-4.67-6.29-12.1-8.95-16.5-2.67-4.4-8.65-12.73-13.3-18.5-4.64-5.77-12.66-14.56-17.81-19.52-5.16-4.97-13.21-12-17.88-15.63-4.67-3.63-13.22-9.52-19-13.08-5.78-3.57-14.33-8.41-19-10.76-4.67-2.35-13.67-6.3-20-8.77-6.33-2.47-16.22-5.82-22-7.44-5.78-1.63-24.22-6.31-41-10.4-16.78-4.1-39.28-9.66-50-12.37-10.72-2.71-23.55-6.34-28.5-8.08-4.95-1.74-13.5-5.29-19-7.89-5.5-2.6-13.6-7.44-18-10.76-4.4-3.32-10.53-9.13-13.63-12.92-3.09-3.78-6.75-9.13-8.12-11.88-1.37-2.75-3.28-8.15-4.24-12-1.35-5.38-1.63-9.31-1.19-17 0.33-5.93 1.45-12.85 2.74-17 1.19-3.85 3.18-9.02 4.43-11.5 1.24-2.48 4.93-7.87 8.2-12 3.26-4.12 9.96-11.72 14.87-16.88 4.92-5.16 11.08-11.12 18.44-17.12l4.25 1.87c2.34 1.02 8.75 4.46 14.25 7.63 5.5 3.17 16.75 10.09 25 15.38 8.25 5.28 21.97 14.59 30.5 20.67 8.53 6.09 20 14.38 25.5 18.43 5.5 4.05 16.75 12.76 25 19.37 8.25 6.6 20.85 17.21 28 23.57 7.15 6.37 20.23 18.78 29.07 27.58 8.84 8.8 21.67 22.32 28.5 30.05 6.84 7.73 17.79 21.01 24.34 29.5 6.56 8.5 15.92 21.53 20.81 28.95 4.89 7.42 13.48 21.26 19.09 30.75 5.6 9.49 10.75 17.26 11.44 17.25 0.69 0 1.25-0.56 1.25-1.25 0-0.69-1.34-5.3-2.98-10.25-1.64-4.95-7.47-18-12.95-29-5.48-11-13.84-26.08-18.59-33.5-4.74-7.42-11.69-17.55-15.46-22.5-3.76-4.95-12.68-15.52-19.8-23.5-7.13-7.98-21.01-22.39-30.84-32.03-9.84-9.64-24.58-23.37-32.76-30.5-8.18-7.13-23.48-19.43-34-27.32-10.52-7.89-27.67-20.09-38.12-27.11-10.45-7.02-25.3-16.54-33-21.17-7.7-4.62-20.84-11.78-44.41-23.37l0.59-4.5c0.32-2.48 1.96-8.32 3.65-13 1.69-4.67 5.19-11.65 7.77-15.5 2.58-3.85 7.11-9.27 10.05-12.05 2.94-2.78 8.27-7.03 11.85-9.43 3.58-2.41 9.42-5.67 13-7.25 3.58-1.58 9.42-3.77 13-4.85 3.58-1.09 9.2-2.44 12.5-3.01 4.2-0.73 6.83-0.72 8.75 0.03 1.51 0.58 7.75 5.9 13.87 11.81 6.11 5.91 18.86 19.3 28.32 29.75 9.47 10.45 22.37 25.3 28.68 33 6.31 7.7 13.96 17.38 16.99 21.5 3.03 4.13 9.81 13.8 15.07 21.5 5.26 7.7 13.94 21.2 19.3 30 5.35 8.8 13 21.85 17 29 4 7.15 11.77 22 17.27 33 5.5 11 13.03 26.98 16.73 35.5 3.69 8.52 8.52 20 10.72 25.5 2.2 5.5 7.36 19 11.45 30 4.1 11 9.34 24.85 11.65 30.78 2.76 7.1 4.71 10.78 5.7 10.77 1.24-0.02 1.37-0.93 0.72-5.28-0.43-2.9-3.01-14.27-5.73-25.27-2.71-11-7.13-26.98-9.81-35.5-2.68-8.52-7.84-23.37-11.46-33-3.63-9.62-9.57-24.02-13.21-32-3.64-7.98-10.69-22.37-15.67-32-4.98-9.62-13.12-24.25-18.08-32.5-4.96-8.25-12.48-20.18-16.69-26.5-4.22-6.32-12.33-18.02-18.03-26-5.71-7.98-13.32-18.1-16.92-22.5-3.6-4.4-10.11-12.05-14.47-17-4.35-4.95-19.67-21.36-34.03-36.46-18.91-19.87-26.05-28.02-25.86-29.5 0.15-1.12 1.69-4.96 3.44-8.54 2.41-4.92 5.87-9.18 14.24-17.55 8.32-8.32 12.79-11.94 18.06-14.65 3.85-1.98 10.6-4.73 15-6.11 4.4-1.39 12.5-3.01 18-3.6 5.5-0.6 12.3-0.75 15.12-0.34 2.81 0.41 6.13 1.65 7.37 2.75 1.24 1.1 5.98 7.63 10.53 14.5 4.55 6.88 12.41 19.7 17.45 28.5 5.05 8.8 12.48 22.75 16.5 31 4.03 8.25 10.26 21.98 13.85 30.5 3.59 8.52 9 22.48 12.02 31 3.02 8.52 7.3 21.8 9.52 29.5 2.22 7.7 5.6 20.3 7.5 28 1.91 7.7 4.63 19.4 6.05 26 1.41 6.6 4.16 20.33 6.09 30.5 1.94 10.18 5.53 32.45 7.98 49.5 2.44 17.05 5.59 41.8 6.99 55 1.4 13.2 2.76 25.91 3.04 28.25 0.33 2.89 0.97 4.25 1.99 4.25 1.12 0 1.66-1.7 2.14-6.75 0.35-3.71 0.38-22.5 0.06-41.75-0.35-21.22-1.17-40.12-2.1-48-0.84-7.15-2.47-19.75-3.63-28-1.16-8.25-3.88-24.56-6.04-36.25-2.16-11.69-6.14-29.91-8.84-40.5-2.7-10.59-6.53-24.54-8.5-31-1.98-6.46-6.11-18.84-9.2-27.5-3.08-8.66-8.21-21.82-11.39-29.25-3.18-7.42-8.72-19.57-12.31-27-3.59-7.42-9.76-19.12-13.71-26-3.95-6.87-10.39-17.57-14.33-23.76-3.93-6.2-9.5-14.97-12.38-19.5-2.88-4.53-5.22-8.91-5.21-9.74 0.02-0.82 2.15-3.22 4.74-5.31 2.58-2.1 9.2-6.01 14.7-8.7 5.5-2.68 11.35-5.09 13-5.36z"/>
	</g>
</svg>